<svg preserveAspectRatio="none" overflow="visible" style="display: block;" width="36" height="36" viewBox="0 0 36 36" fill="none" xmlns="http://www.w3.org/2000/svg">
<g id="kakaotalk icon">
<rect id="Rectangle 410" x="5" y="6" width="27" height="25" fill="white"/>
<path id="Vector" fill-rule="evenodd" clip-rule="evenodd" d="M6.79439 1C5.10947 1 3.49357 1.66933 2.30215 2.86075C1.11074 4.05216 0.441406 5.66807 0.441406 7.35298V29.5884C0.441406 31.2733 1.11074 32.8892 2.30215 34.0807C3.49357 35.2721 5.10947 35.9414 6.79439 35.9414H29.0298C30.7147 35.9414 32.3307 35.2721 33.5221 34.0807C34.7135 32.8892 35.3828 31.2733 35.3828 29.5884V7.35298C35.3828 5.66807 34.7135 4.05216 33.5221 2.86075C32.3307 1.66933 30.7147 1 29.0298 1H6.79439ZM5.20614 16.7379C5.20614 10.8884 11.0144 6.34286 17.9121 6.34286C24.8099 6.34286 30.6181 10.8884 30.6181 16.7379C30.6181 22.5874 24.8099 27.133 17.9121 27.133C17.3785 27.1334 16.8453 27.1069 16.3143 27.0536L10.7078 30.5128C10.6133 30.5711 10.504 30.6009 10.393 30.5987C10.2819 30.5964 10.1739 30.5623 10.0818 30.5003C9.98964 30.4383 9.9173 30.3511 9.87342 30.2491C9.82953 30.1471 9.81595 30.0346 9.83429 29.9251L10.6221 25.2557C7.38363 23.3974 5.20614 20.2988 5.20614 16.7379ZM9.24823 13.6329C9.03761 13.6329 8.83563 13.7166 8.6867 13.8655C8.53777 14.0144 8.45411 14.2164 8.45411 14.427C8.45411 14.6376 8.53777 14.8396 8.6867 14.9886C8.83563 15.1375 9.03761 15.2212 9.24823 15.2212H10.1869V19.6254C10.1869 19.836 10.2705 20.038 10.4195 20.1869C10.5684 20.3358 10.7704 20.4195 10.981 20.4195C11.1916 20.4195 11.3936 20.3358 11.5425 20.1869C11.6915 20.038 11.7751 19.836 11.7751 19.6254V15.2212H12.7138C12.9244 15.2212 13.1264 15.1375 13.2753 14.9886C13.4242 14.8396 13.5079 14.6376 13.5079 14.427C13.5079 14.2164 13.4242 14.0144 13.2753 13.8655C13.1264 13.7166 12.9244 13.6329 12.7138 13.6329H9.24823ZM16.0539 14.1411C15.9959 13.992 15.8942 13.8639 15.7621 13.7735C15.63 13.6832 15.4738 13.6349 15.3137 13.6349C15.1537 13.6349 14.9974 13.6832 14.8654 13.7735C14.7333 13.8639 14.6316 13.992 14.5736 14.1411L12.5518 19.3379C12.48 19.5332 12.4877 19.7489 12.5733 19.9386C12.659 20.1283 12.8156 20.2768 13.0096 20.3521C13.2036 20.4275 13.4194 20.4237 13.6106 20.3415C13.8018 20.2593 13.9532 20.1054 14.032 19.9128L14.2846 19.2648H16.3429L16.5939 19.9128C16.6303 20.0119 16.686 20.1026 16.7579 20.1799C16.8298 20.2571 16.9163 20.3192 17.0125 20.3626C17.1087 20.406 17.2125 20.4299 17.318 20.4327C17.4234 20.4355 17.5284 20.4173 17.6267 20.3791C17.7251 20.3409 17.8148 20.2835 17.8907 20.2102C17.9667 20.1369 18.0272 20.0493 18.0689 19.9523C18.1105 19.8554 18.1324 19.7511 18.1333 19.6456C18.1342 19.5401 18.1141 19.4355 18.0741 19.3379L16.0539 14.1411ZM15.3137 16.6188L15.7251 17.6766H14.9024L15.3137 16.6188ZM19.8609 14.427C19.8609 14.2164 19.7772 14.0144 19.6283 13.8655C19.4794 13.7166 19.2774 13.6329 19.0668 13.6329C18.8562 13.6329 18.6542 13.7166 18.5052 13.8655C18.3563 14.0144 18.2726 14.2164 18.2726 14.427V19.6254C18.2726 19.836 18.3563 20.038 18.5052 20.1869C18.6542 20.3358 18.8562 20.4195 19.0668 20.4195H21.3777C21.5883 20.4195 21.7903 20.3358 21.9392 20.1869C22.0881 20.038 22.1718 19.836 22.1718 19.6254C22.1718 19.4147 22.0881 19.2128 21.9392 19.0638C21.7903 18.9149 21.5883 18.8312 21.3777 18.8312H19.8609V14.427ZM23.1104 13.6329C23.3211 13.6329 23.523 13.7166 23.672 13.8655C23.8209 14.0144 23.9046 14.2164 23.9046 14.427V15.9756L26.0122 13.8664C26.0854 13.7905 26.173 13.73 26.2699 13.6884C26.3668 13.6468 26.471 13.6249 26.5765 13.624C26.6819 13.6231 26.7865 13.6431 26.8841 13.6831C26.9817 13.723 27.0703 13.782 27.1449 13.8565C27.2195 13.9311 27.2784 14.0198 27.3184 14.1174C27.3583 14.215 27.3784 14.3195 27.3775 14.425C27.3765 14.5304 27.3546 14.6346 27.313 14.7315C27.2714 14.8284 27.2109 14.916 27.1351 14.9893L25.3276 16.7967L27.1938 19.1298C27.3177 19.2948 27.3726 19.5015 27.3468 19.7062C27.321 19.9109 27.2165 20.0975 27.0555 20.2265C26.8945 20.3555 26.6896 20.4168 26.4842 20.3974C26.2787 20.378 26.089 20.2794 25.955 20.1225L24.1968 17.9275L23.903 18.2213V19.6254C23.903 19.836 23.8193 20.038 23.6704 20.1869C23.5215 20.3358 23.3195 20.4195 23.1089 20.4195C22.8982 20.4195 22.6962 20.3358 22.5473 20.1869C22.3984 20.038 22.3147 19.836 22.3147 19.6254V14.427C22.3147 14.2164 22.3984 14.0144 22.5473 13.8655C22.6962 13.7166 22.8998 13.6329 23.1104 13.6329Z" fill="#515151"/>
</g>
</svg>
